<svg width="40" height="40" xmlns="http://www.w3.org/2000/svg">
 <!-- Created with Method Draw - http://github.com/duopixel/Method-Draw/ -->
 <g>
  <title>background</title>
  <g display="none" overflow="visible" y="0" x="0" height="100%" width="100%" id="canvasGrid">
   <rect fill="url(#gridpattern)" stroke-width="0" y="0" x="0" height="100%" width="100%"/>
  </g>
 </g>
 <g>
  <title>Layer 1</title>
  <path stroke="#1c1c2d" transform="rotate(-6 32.419319152832024,18.558170318603494) " id="svg_28" d="m33.78734,12.10766l-2.57837,3.63142l1.06317,0.42856l-3.24666,3.11134l1.06269,0.5196l-4.01356,5.2101l6.8077,-3.99268l-1.29848,-0.55447l4.22981,-2.55735l-1.51568,-0.7903l4.46607,-2.68278l-4.97669,-2.32344z" fill="#1c1c2d"/>
  <path stroke="#1c1c2d" transform="rotate(17.60443878173828 7.075056552886971,18.744638442993164) " id="svg_26" d="m5.63732,12.709967l2.709772,3.397319l-1.117349,0.400937l3.41212,2.910758l-1.116849,0.486108l4.218094,4.874217l-7.15464,-3.735284l1.364648,-0.518727l-4.445368,-2.392485l1.592924,-0.739355l-4.693668,-2.509821l5.230316,-2.173668z" fill="#1c1c2d"/>
  <ellipse ry="14.523809" rx="14.523809" id="svg_3" cy="20" cx="20" stroke-width="1.5" stroke="#1c1c2d" fill="#1c1c2d"/>
  <path stroke="#b8bb26" transform="rotate(148 29.789546966552734,9.094728469848633) " id="svg_8" d="m23.210881,5.704785l9.867996,0l3.289338,3.389936l-3.289338,3.389951l-9.867996,0l3.289337,-3.389951l-3.289337,-3.389936z" stroke-width="1.5" fill="#b8bb26"/>
  <path transform="rotate(35 10.083316802978509,9.395481109619144) " stroke="#b8bb26" id="svg_9" d="m3.504652,6.005536l9.86799,0l3.28934,3.38994l-3.28934,3.38995l-9.86799,0l3.28933,-3.38995l-3.28933,-3.38994z" stroke-width="1.5" fill="#b8bb26"/>
  <path stroke="#fabd2f" id="svg_19" d="m15.472531,25.935614l4.52747,5.04763l4.52747,-5.04763l-9.054939,0z" fill="#fabd2f"/>
  <path stroke="#fb4934" id="svg_21" d="m15.094146,22.49762l-2.232865,-2.04405l2.232459,-2.04405l-1.147681,-1.051374l-2.232865,2.04405l-2.232865,-2.04405l-1.147681,1.051374l2.232459,2.04405l-2.232865,2.04405l1.148493,1.051003l2.232459,-2.04405l2.232459,2.04405" stroke-opacity="null" stroke-width="0.5" fill="#fb4934"/>
  <path stroke="#5394ec" id="svg_22" d="m31.382369,22.49762l-2.23287,-2.04405l2.23246,-2.04405l-1.14768,-1.05137l-2.23287,2.04405l-2.23286,-2.04405l-1.14768,1.05137l2.23246,2.04405l-2.23287,2.04405l1.1485,1.051l2.23245,-2.04405l2.23246,2.04405" stroke-width="0.5" fill="#5394ec"/>
 </g>
</svg>